<svg xmlns="http://www.w3.org/2000/svg" width="28" height="28" viewBox="0 0 28 28" fill="none">
  <g clip-path="url(#clip0_448_26402)">
    <path d="M14 26.25C10.7511 26.25 7.63526 24.9594 5.33794 22.6621C3.04062 20.3647 1.75 17.2489 1.75 14C1.75 10.7511 3.04062 7.63526 5.33794 5.33794C7.63526 3.04062 10.7511 1.75 14 1.75C17.2489 1.75 20.3647 3.04062 22.6621 5.33794C24.9594 7.63526 26.25 10.7511 26.25 14C26.25 17.2489 24.9594 20.3647 22.6621 22.6621C20.3647 24.9594 17.2489 26.25 14 26.25ZM14 28C17.713 28 21.274 26.525 23.8995 23.8995C26.525 21.274 28 17.713 28 14C28 10.287 26.525 6.72601 23.8995 4.10051C21.274 1.475 17.713 0 14 0C10.287 0 6.72601 1.475 4.10051 4.10051C1.475 6.72601 0 10.287 0 14C0 17.713 1.475 21.274 4.10051 23.8995C6.72601 26.525 10.287 28 14 28Z" fill="#269956"/>
    <path d="M19.1976 8.69775C19.1851 8.70983 19.1734 8.72269 19.1626 8.73625L13.0849 16.48L9.4221 12.8155C9.1733 12.5837 8.84422 12.4574 8.50419 12.4634C8.16416 12.4694 7.83974 12.6072 7.59927 12.8477C7.35879 13.0881 7.22105 13.4126 7.21505 13.7526C7.20905 14.0926 7.33526 14.4217 7.5671 14.6705L12.1976 19.3027C12.3223 19.4273 12.4709 19.5254 12.6344 19.5912C12.7979 19.6571 12.9729 19.6894 13.1492 19.6861C13.3254 19.6828 13.4991 19.6441 13.6601 19.5722C13.821 19.5004 13.9658 19.3968 14.0859 19.2677L21.0719 10.5352C21.3097 10.2856 21.4398 9.95232 21.4339 9.60752C21.428 9.26272 21.2867 8.93408 21.0404 8.69266C20.7942 8.45124 20.4628 8.31644 20.118 8.31739C19.7731 8.31834 19.4425 8.45497 19.1976 8.69775Z" fill="#269956"/>
  </g>
  <defs>
    <clipPath id="clip0_448_26402">
      <rect width="28" height="28" fill="white"/>
    </clipPath>
  </defs>
</svg>
